<?xml version="1.0" encoding="iso-8859-1"?>
<!-- Generator: Adobe Illustrator 19.0.0, SVG Export Plug-In . SVG Version: 6.00 Build 0)  -->
<svg version="1.1" id="Layer_1" xmlns="http://www.w3.org/2000/svg" xmlns:xlink="http://www.w3.org/1999/xlink" x="0px" y="0px"
	 viewBox="0 0 512 512" style="enable-background:new 0 0 512 512;" xml:space="preserve">
<rect x="128.916" y="111.918" style="fill:#A5001E;" width="254.17" height="392.237"/>
<rect x="256.001" y="111.918" style="fill:#830018;" width="127.085" height="392.237"/>
<path style="fill:#FFFFFF;" d="M383.086,100.413v59.62c-21.181,0-21.181,20.919-42.362,20.919
	c-21.191,0-21.191-20.919-42.372-20.919c-21.181,0-21.181,20.919-42.362,20.919s-21.181-20.919-42.362-20.919
	c-21.17,0-21.17,20.919-42.351,20.919s-21.181-20.919-42.362-20.919v-59.62H383.086z"/>
<path style="fill:#E6E6E6;" d="M383.086,100.413v59.62c-21.181,0-21.181,20.919-42.362,20.919
	c-21.191,0-21.191-20.919-42.372-20.919c-21.181,0-21.181,20.909-42.351,20.919v-80.539H383.086z"/>
<g>
	<rect x="155.588" y="311.311" style="fill:#830018;" width="15.689" height="15.689"/>
	<rect x="184.875" y="380.208" style="fill:#830018;" width="15.689" height="15.689"/>
</g>
<rect x="336.561" y="276.898" style="fill:#A5001E;" width="15.689" height="15.689"/>
<rect x="216.254" y="202.394" style="fill:#830018;" width="15.689" height="15.689"/>
<rect x="263.323" y="415.771" style="fill:#A5001E;" width="15.689" height="15.689"/>
<path d="M136.761,496.311V169.632c2.751,1.435,5.02,3.674,7.822,6.442c5.739,5.668,12.881,12.723,26.692,12.723
	c13.811,0,20.953-7.055,26.692-12.723c4.997-4.936,8.299-8.196,15.668-8.196s10.671,3.26,15.668,8.196
	c5.739,5.668,12.882,12.723,26.694,12.723c13.811,0,20.953-7.055,26.693-12.723c4.997-4.936,8.299-8.196,15.668-8.196
	c7.371,0,10.672,3.261,15.671,8.196c5.739,5.668,12.882,12.723,26.694,12.723s20.955-7.055,26.695-12.723
	c2.803-2.768,5.074-5.008,7.826-6.443v311.514h15.689V92.568H195.336v15.689h179.906v44.798c-8.888,2.045-14.314,7.376-18.85,11.856
	c-4.999,4.936-8.3,8.196-15.671,8.196s-10.672-3.261-15.671-8.196c-5.739-5.668-12.882-12.723-26.695-12.723
	c-13.811,0-20.953,7.055-26.693,12.723c-4.997,4.936-8.299,8.196-15.668,8.196c-7.37,0-10.671-3.26-15.669-8.196
	c-5.739-5.668-12.882-12.723-26.693-12.723c-13.811,0-20.954,7.055-26.693,12.723c-4.997,4.936-8.298,8.196-15.666,8.196
	c-7.369,0-10.67-3.26-15.666-8.196c-4.535-4.48-9.962-9.81-18.847-11.856v-44.798h28.241v38.178h15.689V0h-53.344v15.689h37.655
	v76.878H121.07v403.743H94.921V512h322.157v-15.689H136.761z"/>
<polygon style="fill:#FFFFFF;" points="316.084,291.819 308.24,278.232 263.846,303.862 263.846,252.601 248.156,252.601 
	248.156,303.863 203.761,278.232 195.917,291.819 240.312,317.45 195.917,343.082 203.761,356.669 248.156,331.038 248.156,382.3 
	263.846,382.3 263.846,331.039 308.24,356.669 316.084,343.082 271.691,317.45 "/>
<g>
</g>
<g>
</g>
<g>
</g>
<g>
</g>
<g>
</g>
<g>
</g>
<g>
</g>
<g>
</g>
<g>
</g>
<g>
</g>
<g>
</g>
<g>
</g>
<g>
</g>
<g>
</g>
<g>
</g>
</svg>
